<mxfile host="Electron" modified="2025-06-27T09:41:22.865Z" agent="Mozilla/5.0 (Windows NT 10.0; Win64; x64) AppleWebKit/537.36 (KHTML, like Gecko) draw.io/24.4.6 Chrome/124.0.6367.207 Electron/30.0.6 Safari/537.36" etag="xBJR8qdMCDNFHwOOx7kf" version="24.4.6" type="device">
  <diagram name="Page-1" id="c37626ed-c26b-45fb-9056-f9ebc6bb27b6">
    <mxGraphModel dx="1300" dy="827" grid="1" gridSize="10" guides="1" tooltips="1" connect="1" arrows="1" fold="1" page="1" pageScale="1" pageWidth="1100" pageHeight="850" background="none" math="0" shadow="0">
      <root>
        <mxCell id="0" />
        <mxCell id="1" parent="0" />
        <mxCell id="kVa0G63jbS1xr3QooFlE-42" style="edgeStyle=orthogonalEdgeStyle;rounded=0;orthogonalLoop=1;jettySize=auto;html=1;entryX=0;entryY=0.5;entryDx=0;entryDy=0;exitX=0;exitY=0.5;exitDx=0;exitDy=0;" parent="1" source="kVa0G63jbS1xr3QooFlE-3" target="kVa0G63jbS1xr3QooFlE-10" edge="1">
          <mxGeometry relative="1" as="geometry">
            <Array as="points">
              <mxPoint x="320" y="270" />
              <mxPoint x="320" y="340" />
            </Array>
          </mxGeometry>
        </mxCell>
        <mxCell id="1NgMABkPuTp7Ap_ks7qI-16" style="edgeStyle=orthogonalEdgeStyle;rounded=0;orthogonalLoop=1;jettySize=auto;html=1;entryX=0;entryY=0.5;entryDx=0;entryDy=0;" edge="1" parent="1" source="kVa0G63jbS1xr3QooFlE-3" target="1NgMABkPuTp7Ap_ks7qI-15">
          <mxGeometry relative="1" as="geometry">
            <Array as="points">
              <mxPoint x="320" y="270" />
              <mxPoint x="320" y="1090" />
            </Array>
          </mxGeometry>
        </mxCell>
        <mxCell id="kVa0G63jbS1xr3QooFlE-3" value="&lt;span style=&quot;font-size: 20px;&quot;&gt;PRINTERS&lt;/span&gt;" style="rounded=0;whiteSpace=wrap;html=1;" parent="1" vertex="1">
          <mxGeometry x="360" y="240" width="120" height="60" as="geometry" />
        </mxCell>
        <mxCell id="kVa0G63jbS1xr3QooFlE-70" style="edgeStyle=orthogonalEdgeStyle;rounded=0;orthogonalLoop=1;jettySize=auto;html=1;entryX=0;entryY=0.5;entryDx=0;entryDy=0;" parent="1" source="kVa0G63jbS1xr3QooFlE-4" target="kVa0G63jbS1xr3QooFlE-69" edge="1">
          <mxGeometry relative="1" as="geometry">
            <Array as="points">
              <mxPoint x="840" y="270" />
              <mxPoint x="840" y="340" />
            </Array>
          </mxGeometry>
        </mxCell>
        <mxCell id="kVa0G63jbS1xr3QooFlE-4" value="&lt;font style=&quot;font-size: 20px;&quot;&gt;DOCS&lt;/font&gt;" style="rounded=0;whiteSpace=wrap;html=1;" parent="1" vertex="1">
          <mxGeometry x="860" y="240" width="120" height="60" as="geometry" />
        </mxCell>
        <mxCell id="kVa0G63jbS1xr3QooFlE-6" value="&lt;font style=&quot;font-size: 20px;&quot;&gt;printer.cfg&lt;/font&gt;" style="rounded=0;whiteSpace=wrap;html=1;" parent="1" vertex="1">
          <mxGeometry x="1180" y="240" width="120" height="60" as="geometry" />
        </mxCell>
        <mxCell id="kVa0G63jbS1xr3QooFlE-43" style="edgeStyle=orthogonalEdgeStyle;rounded=0;orthogonalLoop=1;jettySize=auto;html=1;entryX=0;entryY=0.5;entryDx=0;entryDy=0;" parent="1" target="kVa0G63jbS1xr3QooFlE-16" edge="1">
          <mxGeometry relative="1" as="geometry">
            <mxPoint x="420" y="380" as="sourcePoint" />
            <mxPoint x="440" y="425" as="targetPoint" />
            <Array as="points">
              <mxPoint x="420" y="400" />
            </Array>
          </mxGeometry>
        </mxCell>
        <mxCell id="kVa0G63jbS1xr3QooFlE-10" value="&lt;font style=&quot;font-size: 20px;&quot;&gt;FA&lt;/font&gt;" style="rounded=0;whiteSpace=wrap;html=1;" parent="1" vertex="1">
          <mxGeometry x="360" y="320" width="120" height="40" as="geometry" />
        </mxCell>
        <mxCell id="kVa0G63jbS1xr3QooFlE-64" style="edgeStyle=orthogonalEdgeStyle;rounded=0;orthogonalLoop=1;jettySize=auto;html=1;entryX=0;entryY=0.5;entryDx=0;entryDy=0;" parent="1" source="kVa0G63jbS1xr3QooFlE-11" target="kVa0G63jbS1xr3QooFlE-27" edge="1">
          <mxGeometry relative="1" as="geometry" />
        </mxCell>
        <mxCell id="kVa0G63jbS1xr3QooFlE-98" style="edgeStyle=orthogonalEdgeStyle;rounded=0;orthogonalLoop=1;jettySize=auto;html=1;entryX=0;entryY=0.5;entryDx=0;entryDy=0;" parent="1" source="kVa0G63jbS1xr3QooFlE-11" target="kVa0G63jbS1xr3QooFlE-25" edge="1">
          <mxGeometry relative="1" as="geometry">
            <mxPoint x="460" y="940" as="targetPoint" />
          </mxGeometry>
        </mxCell>
        <mxCell id="1NgMABkPuTp7Ap_ks7qI-26" style="edgeStyle=orthogonalEdgeStyle;rounded=0;orthogonalLoop=1;jettySize=auto;html=1;entryX=0;entryY=0.5;entryDx=0;entryDy=0;" edge="1" parent="1" source="kVa0G63jbS1xr3QooFlE-11" target="1NgMABkPuTp7Ap_ks7qI-25">
          <mxGeometry relative="1" as="geometry" />
        </mxCell>
        <mxCell id="kVa0G63jbS1xr3QooFlE-11" value="&lt;font style=&quot;font-size: 20px;&quot;&gt;FAP&lt;/font&gt;" style="rounded=0;whiteSpace=wrap;html=1;" parent="1" vertex="1">
          <mxGeometry x="360" y="660" width="120" height="40" as="geometry" />
        </mxCell>
        <mxCell id="kVa0G63jbS1xr3QooFlE-12" value="&lt;font style=&quot;font-size: 20px;&quot;&gt;OLD&lt;br&gt;&lt;/font&gt;" style="rounded=0;whiteSpace=wrap;html=1;" parent="1" vertex="1">
          <mxGeometry x="380" y="1510" width="120" height="40" as="geometry" />
        </mxCell>
        <mxCell id="1NgMABkPuTp7Ap_ks7qI-7" style="edgeStyle=orthogonalEdgeStyle;rounded=0;orthogonalLoop=1;jettySize=auto;html=1;entryX=0;entryY=0.5;entryDx=0;entryDy=0;" edge="1" parent="1" source="kVa0G63jbS1xr3QooFlE-13" target="1NgMABkPuTp7Ap_ks7qI-5">
          <mxGeometry relative="1" as="geometry">
            <Array as="points">
              <mxPoint x="1010" y="270" />
              <mxPoint x="1010" y="570" />
            </Array>
          </mxGeometry>
        </mxCell>
        <mxCell id="1NgMABkPuTp7Ap_ks7qI-8" style="edgeStyle=orthogonalEdgeStyle;rounded=0;orthogonalLoop=1;jettySize=auto;html=1;entryX=0;entryY=0.5;entryDx=0;entryDy=0;" edge="1" parent="1" source="kVa0G63jbS1xr3QooFlE-13" target="1NgMABkPuTp7Ap_ks7qI-1">
          <mxGeometry relative="1" as="geometry">
            <Array as="points">
              <mxPoint x="1010" y="270" />
              <mxPoint x="1010" y="340" />
            </Array>
          </mxGeometry>
        </mxCell>
        <mxCell id="1NgMABkPuTp7Ap_ks7qI-9" style="edgeStyle=orthogonalEdgeStyle;rounded=0;orthogonalLoop=1;jettySize=auto;html=1;entryX=0;entryY=0.5;entryDx=0;entryDy=0;" edge="1" parent="1" source="kVa0G63jbS1xr3QooFlE-13" target="1NgMABkPuTp7Ap_ks7qI-2">
          <mxGeometry relative="1" as="geometry">
            <Array as="points">
              <mxPoint x="1010" y="270" />
              <mxPoint x="1010" y="398" />
            </Array>
          </mxGeometry>
        </mxCell>
        <mxCell id="1NgMABkPuTp7Ap_ks7qI-11" style="edgeStyle=orthogonalEdgeStyle;rounded=0;orthogonalLoop=1;jettySize=auto;html=1;entryX=0;entryY=0.5;entryDx=0;entryDy=0;" edge="1" parent="1" source="kVa0G63jbS1xr3QooFlE-13" target="1NgMABkPuTp7Ap_ks7qI-3">
          <mxGeometry relative="1" as="geometry">
            <Array as="points">
              <mxPoint x="1010" y="270" />
              <mxPoint x="1010" y="455" />
            </Array>
          </mxGeometry>
        </mxCell>
        <mxCell id="1NgMABkPuTp7Ap_ks7qI-12" style="edgeStyle=orthogonalEdgeStyle;rounded=0;orthogonalLoop=1;jettySize=auto;html=1;entryX=0;entryY=0.5;entryDx=0;entryDy=0;" edge="1" parent="1" source="kVa0G63jbS1xr3QooFlE-13" target="1NgMABkPuTp7Ap_ks7qI-4">
          <mxGeometry relative="1" as="geometry">
            <Array as="points">
              <mxPoint x="1010" y="270" />
              <mxPoint x="1010" y="515" />
            </Array>
          </mxGeometry>
        </mxCell>
        <mxCell id="kVa0G63jbS1xr3QooFlE-13" value="&lt;font style=&quot;font-size: 20px;&quot;&gt;ma&lt;/font&gt;&lt;span style=&quot;font-size: 20px; background-color: initial;&quot;&gt;cros&lt;/span&gt;" style="rounded=0;whiteSpace=wrap;html=1;" parent="1" vertex="1">
          <mxGeometry x="1030" y="240" width="120" height="60" as="geometry" />
        </mxCell>
        <mxCell id="kVa0G63jbS1xr3QooFlE-16" value="&lt;font style=&quot;font-size: 20px;&quot;&gt;COMMON&lt;/font&gt;" style="rounded=0;whiteSpace=wrap;html=1;" parent="1" vertex="1">
          <mxGeometry x="440" y="377.5" width="100" height="40" as="geometry" />
        </mxCell>
        <mxCell id="kVa0G63jbS1xr3QooFlE-48" style="edgeStyle=orthogonalEdgeStyle;rounded=0;orthogonalLoop=1;jettySize=auto;html=1;entryX=0;entryY=0.5;entryDx=0;entryDy=0;" parent="1" source="kVa0G63jbS1xr3QooFlE-17" target="kVa0G63jbS1xr3QooFlE-18" edge="1">
          <mxGeometry relative="1" as="geometry" />
        </mxCell>
        <mxCell id="kVa0G63jbS1xr3QooFlE-17" value="&lt;font style=&quot;font-size: 20px;&quot;&gt;A4&lt;/font&gt;" style="rounded=0;whiteSpace=wrap;html=1;" parent="1" vertex="1">
          <mxGeometry x="440" y="432.5" width="100" height="40" as="geometry" />
        </mxCell>
        <mxCell id="kVa0G63jbS1xr3QooFlE-18" value="&lt;font style=&quot;font-size: 20px;&quot;&gt;A4 2EX&lt;/font&gt;" style="rounded=0;whiteSpace=wrap;html=1;" parent="1" vertex="1">
          <mxGeometry x="560" y="432.5" width="90" height="40" as="geometry" />
        </mxCell>
        <mxCell id="kVa0G63jbS1xr3QooFlE-49" style="edgeStyle=orthogonalEdgeStyle;rounded=0;orthogonalLoop=1;jettySize=auto;html=1;entryX=0;entryY=0.5;entryDx=0;entryDy=0;" parent="1" source="kVa0G63jbS1xr3QooFlE-20" target="kVa0G63jbS1xr3QooFlE-21" edge="1">
          <mxGeometry relative="1" as="geometry" />
        </mxCell>
        <mxCell id="kVa0G63jbS1xr3QooFlE-20" value="&lt;font style=&quot;font-size: 20px;&quot;&gt;A3&lt;/font&gt;" style="rounded=0;whiteSpace=wrap;html=1;" parent="1" vertex="1">
          <mxGeometry x="440" y="482.5" width="100" height="40" as="geometry" />
        </mxCell>
        <mxCell id="kVa0G63jbS1xr3QooFlE-21" value="&lt;font style=&quot;font-size: 20px;&quot;&gt;A3&lt;/font&gt;&lt;span style=&quot;font-size: 20px; background-color: initial;&quot;&gt;&amp;nbsp;2EX&lt;/span&gt;" style="rounded=0;whiteSpace=wrap;html=1;" parent="1" vertex="1">
          <mxGeometry x="560" y="482.5" width="90" height="40" as="geometry" />
        </mxCell>
        <mxCell id="kVa0G63jbS1xr3QooFlE-50" style="edgeStyle=orthogonalEdgeStyle;rounded=0;orthogonalLoop=1;jettySize=auto;html=1;entryX=0;entryY=0.5;entryDx=0;entryDy=0;" parent="1" source="kVa0G63jbS1xr3QooFlE-22" target="kVa0G63jbS1xr3QooFlE-23" edge="1">
          <mxGeometry relative="1" as="geometry" />
        </mxCell>
        <mxCell id="kVa0G63jbS1xr3QooFlE-22" value="&lt;font style=&quot;font-size: 20px;&quot;&gt;A2&lt;/font&gt;" style="rounded=0;whiteSpace=wrap;html=1;" parent="1" vertex="1">
          <mxGeometry x="440" y="532.5" width="100" height="40" as="geometry" />
        </mxCell>
        <mxCell id="kVa0G63jbS1xr3QooFlE-23" value="&lt;font style=&quot;font-size: 20px;&quot;&gt;A2&lt;/font&gt;&lt;span style=&quot;font-size: 20px; background-color: initial;&quot;&gt;&amp;nbsp;2EX&lt;/span&gt;" style="rounded=0;whiteSpace=wrap;html=1;" parent="1" vertex="1">
          <mxGeometry x="560" y="532.5" width="90" height="40" as="geometry" />
        </mxCell>
        <mxCell id="kVa0G63jbS1xr3QooFlE-97" style="edgeStyle=orthogonalEdgeStyle;rounded=0;orthogonalLoop=1;jettySize=auto;html=1;entryX=0;entryY=0.5;entryDx=0;entryDy=0;" parent="1" source="kVa0G63jbS1xr3QooFlE-25" target="kVa0G63jbS1xr3QooFlE-26" edge="1">
          <mxGeometry relative="1" as="geometry" />
        </mxCell>
        <mxCell id="kVa0G63jbS1xr3QooFlE-25" value="&lt;font style=&quot;font-size: 20px;&quot;&gt;CUBE600P&lt;/font&gt;" style="rounded=0;whiteSpace=wrap;html=1;" parent="1" vertex="1">
          <mxGeometry x="440" y="940" width="110" height="40" as="geometry" />
        </mxCell>
        <mxCell id="kVa0G63jbS1xr3QooFlE-26" value="&lt;font style=&quot;font-size: 20px;&quot;&gt;CUBE600P 2EX&lt;/font&gt;" style="rounded=0;whiteSpace=wrap;html=1;" parent="1" vertex="1">
          <mxGeometry x="570" y="940" width="160" height="40" as="geometry" />
        </mxCell>
        <mxCell id="kVa0G63jbS1xr3QooFlE-27" value="&lt;font style=&quot;font-size: 20px;&quot;&gt;COMMON&lt;/font&gt;" style="rounded=0;whiteSpace=wrap;html=1;" parent="1" vertex="1">
          <mxGeometry x="440" y="720" width="100" height="40" as="geometry" />
        </mxCell>
        <mxCell id="kVa0G63jbS1xr3QooFlE-94" style="edgeStyle=orthogonalEdgeStyle;rounded=0;orthogonalLoop=1;jettySize=auto;html=1;entryX=0;entryY=0.5;entryDx=0;entryDy=0;" parent="1" source="kVa0G63jbS1xr3QooFlE-28" target="kVa0G63jbS1xr3QooFlE-29" edge="1">
          <mxGeometry relative="1" as="geometry" />
        </mxCell>
        <mxCell id="kVa0G63jbS1xr3QooFlE-28" value="&lt;font style=&quot;font-size: 20px;&quot;&gt;A4P&lt;/font&gt;" style="rounded=0;whiteSpace=wrap;html=1;" parent="1" vertex="1">
          <mxGeometry x="440" y="780" width="90" height="40" as="geometry" />
        </mxCell>
        <mxCell id="kVa0G63jbS1xr3QooFlE-29" value="&lt;font style=&quot;font-size: 20px;&quot;&gt;A4P 2EX&lt;/font&gt;" style="rounded=0;whiteSpace=wrap;html=1;" parent="1" vertex="1">
          <mxGeometry x="570" y="780" width="90" height="40" as="geometry" />
        </mxCell>
        <mxCell id="kVa0G63jbS1xr3QooFlE-95" style="edgeStyle=orthogonalEdgeStyle;rounded=0;orthogonalLoop=1;jettySize=auto;html=1;entryX=0;entryY=0.5;entryDx=0;entryDy=0;" parent="1" source="kVa0G63jbS1xr3QooFlE-30" target="kVa0G63jbS1xr3QooFlE-31" edge="1">
          <mxGeometry relative="1" as="geometry" />
        </mxCell>
        <mxCell id="kVa0G63jbS1xr3QooFlE-30" value="&lt;font style=&quot;font-size: 20px;&quot;&gt;A3P&lt;/font&gt;" style="rounded=0;whiteSpace=wrap;html=1;" parent="1" vertex="1">
          <mxGeometry x="440" y="840" width="90" height="40" as="geometry" />
        </mxCell>
        <mxCell id="kVa0G63jbS1xr3QooFlE-31" value="&lt;font style=&quot;font-size: 20px;&quot;&gt;A3P&lt;/font&gt;&lt;span style=&quot;font-size: 20px; background-color: initial;&quot;&gt;&amp;nbsp;2EX&lt;/span&gt;" style="rounded=0;whiteSpace=wrap;html=1;" parent="1" vertex="1">
          <mxGeometry x="570" y="840" width="90" height="40" as="geometry" />
        </mxCell>
        <mxCell id="kVa0G63jbS1xr3QooFlE-96" style="edgeStyle=orthogonalEdgeStyle;rounded=0;orthogonalLoop=1;jettySize=auto;html=1;entryX=0;entryY=0.5;entryDx=0;entryDy=0;" parent="1" source="kVa0G63jbS1xr3QooFlE-32" target="kVa0G63jbS1xr3QooFlE-33" edge="1">
          <mxGeometry relative="1" as="geometry" />
        </mxCell>
        <mxCell id="kVa0G63jbS1xr3QooFlE-32" value="&lt;font style=&quot;font-size: 20px;&quot;&gt;A2P&lt;/font&gt;" style="rounded=0;whiteSpace=wrap;html=1;" parent="1" vertex="1">
          <mxGeometry x="440" y="890" width="90" height="40" as="geometry" />
        </mxCell>
        <mxCell id="kVa0G63jbS1xr3QooFlE-33" value="&lt;font style=&quot;font-size: 20px;&quot;&gt;A2P&lt;/font&gt;&lt;span style=&quot;font-size: 20px; background-color: initial;&quot;&gt;&amp;nbsp;2EX&lt;/span&gt;" style="rounded=0;whiteSpace=wrap;html=1;" parent="1" vertex="1">
          <mxGeometry x="570" y="890" width="90" height="40" as="geometry" />
        </mxCell>
        <mxCell id="kVa0G63jbS1xr3QooFlE-45" style="edgeStyle=orthogonalEdgeStyle;rounded=0;orthogonalLoop=1;jettySize=auto;html=1;entryX=0;entryY=0.5;entryDx=0;entryDy=0;exitX=0.5;exitY=1;exitDx=0;exitDy=0;" parent="1" source="kVa0G63jbS1xr3QooFlE-10" target="kVa0G63jbS1xr3QooFlE-17" edge="1">
          <mxGeometry relative="1" as="geometry">
            <mxPoint x="380.0000000000001" y="380" as="sourcePoint" />
            <mxPoint x="440" y="482.5" as="targetPoint" />
            <Array as="points">
              <mxPoint x="420" y="455" />
            </Array>
          </mxGeometry>
        </mxCell>
        <mxCell id="kVa0G63jbS1xr3QooFlE-46" style="edgeStyle=orthogonalEdgeStyle;rounded=0;orthogonalLoop=1;jettySize=auto;html=1;entryX=0;entryY=0.5;entryDx=0;entryDy=0;exitX=0.5;exitY=1;exitDx=0;exitDy=0;" parent="1" source="kVa0G63jbS1xr3QooFlE-10" target="kVa0G63jbS1xr3QooFlE-20" edge="1">
          <mxGeometry relative="1" as="geometry">
            <mxPoint x="390" y="380" as="sourcePoint" />
            <mxPoint x="439.15" y="529.9999999999999" as="targetPoint" />
            <Array as="points">
              <mxPoint x="420" y="505" />
            </Array>
          </mxGeometry>
        </mxCell>
        <mxCell id="kVa0G63jbS1xr3QooFlE-47" style="edgeStyle=orthogonalEdgeStyle;rounded=0;orthogonalLoop=1;jettySize=auto;html=1;entryX=0;entryY=0.5;entryDx=0;entryDy=0;" parent="1" target="kVa0G63jbS1xr3QooFlE-22" edge="1">
          <mxGeometry relative="1" as="geometry">
            <mxPoint x="420" y="380" as="sourcePoint" />
            <mxPoint x="440" y="579.96" as="targetPoint" />
            <Array as="points">
              <mxPoint x="420" y="380" />
              <mxPoint x="420" y="580" />
            </Array>
          </mxGeometry>
        </mxCell>
        <mxCell id="kVa0G63jbS1xr3QooFlE-51" style="edgeStyle=orthogonalEdgeStyle;rounded=0;orthogonalLoop=1;jettySize=auto;html=1;entryX=0;entryY=0.5;entryDx=0;entryDy=0;exitX=0;exitY=0.5;exitDx=0;exitDy=0;" parent="1" source="kVa0G63jbS1xr3QooFlE-3" target="kVa0G63jbS1xr3QooFlE-11" edge="1">
          <mxGeometry relative="1" as="geometry">
            <mxPoint x="310" y="430" as="sourcePoint" />
            <mxPoint x="370" y="510" as="targetPoint" />
            <Array as="points">
              <mxPoint x="320" y="270" />
              <mxPoint x="320" y="680" />
            </Array>
          </mxGeometry>
        </mxCell>
        <mxCell id="kVa0G63jbS1xr3QooFlE-65" style="edgeStyle=orthogonalEdgeStyle;rounded=0;orthogonalLoop=1;jettySize=auto;html=1;entryX=0;entryY=0.5;entryDx=0;entryDy=0;exitX=0.5;exitY=1;exitDx=0;exitDy=0;" parent="1" source="kVa0G63jbS1xr3QooFlE-11" target="kVa0G63jbS1xr3QooFlE-28" edge="1">
          <mxGeometry relative="1" as="geometry">
            <mxPoint x="410" y="760" as="sourcePoint" />
            <mxPoint x="430" y="800" as="targetPoint" />
          </mxGeometry>
        </mxCell>
        <mxCell id="kVa0G63jbS1xr3QooFlE-66" style="edgeStyle=orthogonalEdgeStyle;rounded=0;orthogonalLoop=1;jettySize=auto;html=1;entryX=0;entryY=0.5;entryDx=0;entryDy=0;exitX=0.5;exitY=1;exitDx=0;exitDy=0;" parent="1" source="kVa0G63jbS1xr3QooFlE-11" target="kVa0G63jbS1xr3QooFlE-30" edge="1">
          <mxGeometry relative="1" as="geometry">
            <mxPoint x="410" y="760" as="sourcePoint" />
            <mxPoint x="430" y="860" as="targetPoint" />
          </mxGeometry>
        </mxCell>
        <mxCell id="kVa0G63jbS1xr3QooFlE-67" style="edgeStyle=orthogonalEdgeStyle;rounded=0;orthogonalLoop=1;jettySize=auto;html=1;entryX=0;entryY=0.5;entryDx=0;entryDy=0;exitX=0.5;exitY=1;exitDx=0;exitDy=0;" parent="1" source="kVa0G63jbS1xr3QooFlE-11" target="kVa0G63jbS1xr3QooFlE-32" edge="1">
          <mxGeometry relative="1" as="geometry">
            <mxPoint x="400" y="760" as="sourcePoint" />
            <mxPoint x="420" y="920" as="targetPoint" />
          </mxGeometry>
        </mxCell>
        <mxCell id="kVa0G63jbS1xr3QooFlE-69" value="&lt;span style=&quot;font-size: 20px;&quot;&gt;manual&lt;/span&gt;" style="rounded=0;whiteSpace=wrap;html=1;" parent="1" vertex="1">
          <mxGeometry x="860" y="320" width="120" height="40" as="geometry" />
        </mxCell>
        <mxCell id="kVa0G63jbS1xr3QooFlE-71" value="&lt;font style=&quot;font-size: 20px;&quot;&gt;changelog&lt;/font&gt;" style="rounded=0;whiteSpace=wrap;html=1;" parent="1" vertex="1">
          <mxGeometry x="860" y="377.5" width="120" height="45" as="geometry" />
        </mxCell>
        <mxCell id="kVa0G63jbS1xr3QooFlE-72" style="edgeStyle=orthogonalEdgeStyle;rounded=0;orthogonalLoop=1;jettySize=auto;html=1;exitX=0;exitY=0.5;exitDx=0;exitDy=0;entryX=0;entryY=0.5;entryDx=0;entryDy=0;" parent="1" source="kVa0G63jbS1xr3QooFlE-4" target="kVa0G63jbS1xr3QooFlE-71" edge="1">
          <mxGeometry relative="1" as="geometry">
            <mxPoint x="860" y="360" as="sourcePoint" />
            <mxPoint x="920" y="400" as="targetPoint" />
            <Array as="points">
              <mxPoint x="840" y="270" />
              <mxPoint x="840" y="400" />
            </Array>
          </mxGeometry>
        </mxCell>
        <mxCell id="1NgMABkPuTp7Ap_ks7qI-14" style="edgeStyle=orthogonalEdgeStyle;rounded=0;orthogonalLoop=1;jettySize=auto;html=1;entryX=0;entryY=0.5;entryDx=0;entryDy=0;" edge="1" parent="1" source="kVa0G63jbS1xr3QooFlE-75" target="1NgMABkPuTp7Ap_ks7qI-13">
          <mxGeometry relative="1" as="geometry">
            <Array as="points">
              <mxPoint x="670" y="270" />
              <mxPoint x="670" y="570" />
            </Array>
          </mxGeometry>
        </mxCell>
        <mxCell id="kVa0G63jbS1xr3QooFlE-75" value="&lt;font style=&quot;font-size: 20px;&quot;&gt;BOARDS&lt;/font&gt;" style="rounded=0;whiteSpace=wrap;html=1;" parent="1" vertex="1">
          <mxGeometry x="700" y="240" width="120" height="60" as="geometry" />
        </mxCell>
        <mxCell id="kVa0G63jbS1xr3QooFlE-76" value="&lt;span style=&quot;font-size: 20px;&quot;&gt;M8P1&lt;/span&gt;" style="rounded=0;whiteSpace=wrap;html=1;" parent="1" vertex="1">
          <mxGeometry x="690" y="310" width="120" height="40" as="geometry" />
        </mxCell>
        <mxCell id="kVa0G63jbS1xr3QooFlE-77" value="&lt;font style=&quot;font-size: 20px;&quot;&gt;M8P2&lt;/font&gt;" style="rounded=0;whiteSpace=wrap;html=1;" parent="1" vertex="1">
          <mxGeometry x="690" y="370" width="120" height="40" as="geometry" />
        </mxCell>
        <mxCell id="kVa0G63jbS1xr3QooFlE-79" value="&lt;font style=&quot;font-size: 20px;&quot;&gt;M5P&lt;/font&gt;" style="rounded=0;whiteSpace=wrap;html=1;" parent="1" vertex="1">
          <mxGeometry x="690" y="425" width="120" height="40" as="geometry" />
        </mxCell>
        <mxCell id="kVa0G63jbS1xr3QooFlE-81" value="&lt;font style=&quot;font-size: 20px;&quot;&gt;EBB42&lt;/font&gt;" style="rounded=0;whiteSpace=wrap;html=1;" parent="1" vertex="1">
          <mxGeometry x="690" y="485" width="120" height="40" as="geometry" />
        </mxCell>
        <mxCell id="kVa0G63jbS1xr3QooFlE-83" style="edgeStyle=orthogonalEdgeStyle;rounded=0;orthogonalLoop=1;jettySize=auto;html=1;entryX=0;entryY=0.5;entryDx=0;entryDy=0;exitX=0;exitY=0.5;exitDx=0;exitDy=0;" parent="1" source="kVa0G63jbS1xr3QooFlE-3" target="kVa0G63jbS1xr3QooFlE-12" edge="1">
          <mxGeometry relative="1" as="geometry">
            <mxPoint x="290" y="610" as="sourcePoint" />
            <mxPoint x="350" y="1110" as="targetPoint" />
            <Array as="points">
              <mxPoint x="320" y="270" />
              <mxPoint x="320" y="1530" />
              <mxPoint x="380" y="1530" />
            </Array>
          </mxGeometry>
        </mxCell>
        <mxCell id="kVa0G63jbS1xr3QooFlE-86" value="&lt;font style=&quot;font-size: 20px;&quot;&gt;config structure&lt;/font&gt;" style="rounded=0;whiteSpace=wrap;html=1;" parent="1" vertex="1">
          <mxGeometry x="860" y="435" width="120" height="60" as="geometry" />
        </mxCell>
        <mxCell id="kVa0G63jbS1xr3QooFlE-87" style="edgeStyle=orthogonalEdgeStyle;rounded=0;orthogonalLoop=1;jettySize=auto;html=1;entryX=0;entryY=0.5;entryDx=0;entryDy=0;exitX=0;exitY=0.5;exitDx=0;exitDy=0;" parent="1" source="kVa0G63jbS1xr3QooFlE-4" target="kVa0G63jbS1xr3QooFlE-86" edge="1">
          <mxGeometry relative="1" as="geometry">
            <mxPoint x="830" y="350" as="sourcePoint" />
            <mxPoint x="890" y="520" as="targetPoint" />
            <Array as="points">
              <mxPoint x="840" y="270" />
              <mxPoint x="840" y="465" />
            </Array>
          </mxGeometry>
        </mxCell>
        <mxCell id="kVa0G63jbS1xr3QooFlE-88" style="edgeStyle=orthogonalEdgeStyle;rounded=0;orthogonalLoop=1;jettySize=auto;html=1;entryX=0;entryY=0.5;entryDx=0;entryDy=0;exitX=0;exitY=0.5;exitDx=0;exitDy=0;" parent="1" source="kVa0G63jbS1xr3QooFlE-75" target="kVa0G63jbS1xr3QooFlE-79" edge="1">
          <mxGeometry relative="1" as="geometry">
            <mxPoint x="690" y="250" as="sourcePoint" />
            <mxPoint x="750" y="500" as="targetPoint" />
            <Array as="points">
              <mxPoint x="670" y="270" />
              <mxPoint x="670" y="445" />
            </Array>
          </mxGeometry>
        </mxCell>
        <mxCell id="kVa0G63jbS1xr3QooFlE-89" style="edgeStyle=orthogonalEdgeStyle;rounded=0;orthogonalLoop=1;jettySize=auto;html=1;entryX=0;entryY=0.5;entryDx=0;entryDy=0;exitX=0;exitY=0.5;exitDx=0;exitDy=0;" parent="1" source="kVa0G63jbS1xr3QooFlE-75" target="kVa0G63jbS1xr3QooFlE-81" edge="1">
          <mxGeometry relative="1" as="geometry">
            <mxPoint x="720" y="340" as="sourcePoint" />
            <mxPoint x="780" y="570" as="targetPoint" />
            <Array as="points">
              <mxPoint x="670" y="270" />
              <mxPoint x="670" y="505" />
            </Array>
          </mxGeometry>
        </mxCell>
        <mxCell id="kVa0G63jbS1xr3QooFlE-91" style="edgeStyle=orthogonalEdgeStyle;rounded=0;orthogonalLoop=1;jettySize=auto;html=1;entryX=0;entryY=0.5;entryDx=0;entryDy=0;exitX=0;exitY=0.5;exitDx=0;exitDy=0;" parent="1" source="kVa0G63jbS1xr3QooFlE-75" target="kVa0G63jbS1xr3QooFlE-77" edge="1">
          <mxGeometry relative="1" as="geometry">
            <mxPoint x="690" y="200" as="sourcePoint" />
            <mxPoint x="740" y="420" as="targetPoint" />
            <Array as="points">
              <mxPoint x="670" y="270" />
              <mxPoint x="670" y="390" />
            </Array>
          </mxGeometry>
        </mxCell>
        <mxCell id="kVa0G63jbS1xr3QooFlE-92" style="edgeStyle=orthogonalEdgeStyle;rounded=0;orthogonalLoop=1;jettySize=auto;html=1;entryX=0;entryY=0.5;entryDx=0;entryDy=0;exitX=0;exitY=0.5;exitDx=0;exitDy=0;" parent="1" source="kVa0G63jbS1xr3QooFlE-75" target="kVa0G63jbS1xr3QooFlE-76" edge="1">
          <mxGeometry relative="1" as="geometry">
            <mxPoint x="610" y="250" as="sourcePoint" />
            <mxPoint x="670" y="330" as="targetPoint" />
            <Array as="points">
              <mxPoint x="670" y="270" />
              <mxPoint x="670" y="330" />
            </Array>
          </mxGeometry>
        </mxCell>
        <mxCell id="kVa0G63jbS1xr3QooFlE-99" value="&lt;font style=&quot;font-size: 20px;&quot;&gt;klipperscreen&lt;/font&gt;" style="rounded=0;whiteSpace=wrap;html=1;" parent="1" vertex="1">
          <mxGeometry x="1320" y="240" width="130" height="60" as="geometry" />
        </mxCell>
        <mxCell id="kVa0G63jbS1xr3QooFlE-100" value="&lt;font style=&quot;font-size: 20px;&quot;&gt;moonraker&lt;/font&gt;" style="rounded=0;whiteSpace=wrap;html=1;" parent="1" vertex="1">
          <mxGeometry x="1470" y="240" width="120" height="60" as="geometry" />
        </mxCell>
        <mxCell id="kVa0G63jbS1xr3QooFlE-101" value="&lt;font style=&quot;font-size: 20px;&quot;&gt;shell_command&lt;/font&gt;" style="rounded=0;whiteSpace=wrap;html=1;" parent="1" vertex="1">
          <mxGeometry x="1610" y="240" width="150" height="60" as="geometry" />
        </mxCell>
        <mxCell id="kVa0G63jbS1xr3QooFlE-102" value="&lt;font style=&quot;font-size: 20px;&quot;&gt;variables&lt;/font&gt;" style="rounded=0;whiteSpace=wrap;html=1;" parent="1" vertex="1">
          <mxGeometry x="1780" y="240" width="150" height="60" as="geometry" />
        </mxCell>
        <mxCell id="kVa0G63jbS1xr3QooFlE-103" value="&lt;font style=&quot;font-size: 20px;&quot;&gt;crowsnest&lt;/font&gt;" style="rounded=0;whiteSpace=wrap;html=1;" parent="1" vertex="1">
          <mxGeometry x="1950" y="240" width="150" height="60" as="geometry" />
        </mxCell>
        <mxCell id="1NgMABkPuTp7Ap_ks7qI-1" value="&lt;span style=&quot;font-size: 20px;&quot;&gt;common&lt;/span&gt;" style="rounded=0;whiteSpace=wrap;html=1;" vertex="1" parent="1">
          <mxGeometry x="1030" y="320" width="120" height="40" as="geometry" />
        </mxCell>
        <mxCell id="1NgMABkPuTp7Ap_ks7qI-2" value="&lt;span style=&quot;font-size: 20px;&quot;&gt;FAP&lt;/span&gt;" style="rounded=0;whiteSpace=wrap;html=1;" vertex="1" parent="1">
          <mxGeometry x="1030" y="377.5" width="120" height="40" as="geometry" />
        </mxCell>
        <mxCell id="1NgMABkPuTp7Ap_ks7qI-3" value="&lt;span style=&quot;font-size: 20px;&quot;&gt;FA&lt;/span&gt;" style="rounded=0;whiteSpace=wrap;html=1;" vertex="1" parent="1">
          <mxGeometry x="1030" y="435" width="120" height="40" as="geometry" />
        </mxCell>
        <mxCell id="1NgMABkPuTp7Ap_ks7qI-4" value="&lt;span style=&quot;font-size: 20px;&quot;&gt;GIGA&lt;/span&gt;" style="rounded=0;whiteSpace=wrap;html=1;" vertex="1" parent="1">
          <mxGeometry x="1030" y="495" width="120" height="40" as="geometry" />
        </mxCell>
        <mxCell id="1NgMABkPuTp7Ap_ks7qI-5" value="&lt;span style=&quot;font-size: 20px;&quot;&gt;OLD&lt;/span&gt;" style="rounded=0;whiteSpace=wrap;html=1;" vertex="1" parent="1">
          <mxGeometry x="1030" y="550" width="120" height="40" as="geometry" />
        </mxCell>
        <mxCell id="1NgMABkPuTp7Ap_ks7qI-13" value="&lt;font style=&quot;font-size: 20px;&quot;&gt;EBB42 2EX&lt;/font&gt;" style="rounded=0;whiteSpace=wrap;html=1;" vertex="1" parent="1">
          <mxGeometry x="690" y="550" width="120" height="40" as="geometry" />
        </mxCell>
        <mxCell id="1NgMABkPuTp7Ap_ks7qI-21" style="edgeStyle=orthogonalEdgeStyle;rounded=0;orthogonalLoop=1;jettySize=auto;html=1;entryX=0;entryY=0.5;entryDx=0;entryDy=0;" edge="1" parent="1" source="1NgMABkPuTp7Ap_ks7qI-15" target="1NgMABkPuTp7Ap_ks7qI-17">
          <mxGeometry relative="1" as="geometry" />
        </mxCell>
        <mxCell id="1NgMABkPuTp7Ap_ks7qI-22" style="edgeStyle=orthogonalEdgeStyle;rounded=0;orthogonalLoop=1;jettySize=auto;html=1;entryX=0;entryY=0.5;entryDx=0;entryDy=0;" edge="1" parent="1" source="1NgMABkPuTp7Ap_ks7qI-15" target="1NgMABkPuTp7Ap_ks7qI-18">
          <mxGeometry relative="1" as="geometry" />
        </mxCell>
        <mxCell id="1NgMABkPuTp7Ap_ks7qI-23" style="edgeStyle=orthogonalEdgeStyle;rounded=0;orthogonalLoop=1;jettySize=auto;html=1;entryX=0;entryY=0.5;entryDx=0;entryDy=0;" edge="1" parent="1" source="1NgMABkPuTp7Ap_ks7qI-15" target="1NgMABkPuTp7Ap_ks7qI-19">
          <mxGeometry relative="1" as="geometry" />
        </mxCell>
        <mxCell id="1NgMABkPuTp7Ap_ks7qI-24" style="edgeStyle=orthogonalEdgeStyle;rounded=0;orthogonalLoop=1;jettySize=auto;html=1;entryX=0;entryY=0.5;entryDx=0;entryDy=0;" edge="1" parent="1" source="1NgMABkPuTp7Ap_ks7qI-15" target="1NgMABkPuTp7Ap_ks7qI-20">
          <mxGeometry relative="1" as="geometry" />
        </mxCell>
        <mxCell id="1NgMABkPuTp7Ap_ks7qI-28" style="edgeStyle=orthogonalEdgeStyle;rounded=0;orthogonalLoop=1;jettySize=auto;html=1;entryX=0;entryY=0.5;entryDx=0;entryDy=0;" edge="1" parent="1" source="1NgMABkPuTp7Ap_ks7qI-15" target="1NgMABkPuTp7Ap_ks7qI-27">
          <mxGeometry relative="1" as="geometry" />
        </mxCell>
        <mxCell id="1NgMABkPuTp7Ap_ks7qI-15" value="&lt;font style=&quot;font-size: 20px;&quot;&gt;GIGA&lt;/font&gt;" style="rounded=0;whiteSpace=wrap;html=1;" vertex="1" parent="1">
          <mxGeometry x="360" y="1070" width="120" height="40" as="geometry" />
        </mxCell>
        <mxCell id="1NgMABkPuTp7Ap_ks7qI-17" value="&lt;font style=&quot;font-size: 20px;&quot;&gt;COMMON&lt;/font&gt;" style="rounded=0;whiteSpace=wrap;html=1;" vertex="1" parent="1">
          <mxGeometry x="440" y="1130" width="100" height="40" as="geometry" />
        </mxCell>
        <mxCell id="1NgMABkPuTp7Ap_ks7qI-18" value="&lt;font style=&quot;font-size: 20px;&quot;&gt;CUBE600&lt;/font&gt;" style="rounded=0;whiteSpace=wrap;html=1;" vertex="1" parent="1">
          <mxGeometry x="440" y="1190" width="100" height="40" as="geometry" />
        </mxCell>
        <mxCell id="1NgMABkPuTp7Ap_ks7qI-19" value="&lt;font style=&quot;font-size: 20px;&quot;&gt;CUBE1000&lt;/font&gt;" style="rounded=0;whiteSpace=wrap;html=1;" vertex="1" parent="1">
          <mxGeometry x="440" y="1250" width="100" height="40" as="geometry" />
        </mxCell>
        <mxCell id="1NgMABkPuTp7Ap_ks7qI-20" value="&lt;font style=&quot;font-size: 20px;&quot;&gt;A2&lt;/font&gt;" style="rounded=0;whiteSpace=wrap;html=1;" vertex="1" parent="1">
          <mxGeometry x="440" y="1310" width="100" height="40" as="geometry" />
        </mxCell>
        <mxCell id="1NgMABkPuTp7Ap_ks7qI-25" value="&lt;font style=&quot;font-size: 20px;&quot;&gt;2EX&lt;/font&gt;" style="rounded=0;whiteSpace=wrap;html=1;" vertex="1" parent="1">
          <mxGeometry x="440" y="1000" width="100" height="40" as="geometry" />
        </mxCell>
        <mxCell id="1NgMABkPuTp7Ap_ks7qI-27" value="&lt;font style=&quot;font-size: 20px;&quot;&gt;2EX&lt;/font&gt;" style="rounded=0;whiteSpace=wrap;html=1;" vertex="1" parent="1">
          <mxGeometry x="440" y="1370" width="100" height="40" as="geometry" />
        </mxCell>
      </root>
    </mxGraphModel>
  </diagram>
</mxfile>
